<svg width="201" height="65" viewBox="0 0 201 65" fill="none" xmlns="http://www.w3.org/2000/svg">
<g filter="url(#filter0_d_2_299)">
<path d="M4 5C4 2.23858 6.23858 0 9 0H191.375C194.136 0 196.375 2.23858 196.375 5V52C196.375 54.7614 194.136 57 191.375 57H9C6.23858 57 4 54.7614 4 52V5Z" fill="black"/>
<path d="M101.094 30.9954C97.7422 30.9954 95.0105 33.5448 95.0105 37.056C95.0105 40.5458 97.7422 43.1165 101.094 43.1165C104.447 43.1165 107.179 40.5458 107.179 37.056C107.177 33.5448 104.445 30.9954 101.094 30.9954ZM101.094 40.731C99.257 40.731 97.6738 39.2163 97.6738 37.0574C97.6738 34.8757 99.2584 33.3837 101.094 33.3837C102.931 33.3837 104.514 34.8757 104.514 37.0574C104.514 39.2148 102.931 40.731 101.094 40.731ZM87.8214 30.9954C84.4698 30.9954 81.738 33.5448 81.738 37.056C81.738 40.5458 84.4698 43.1165 87.8214 43.1165C91.1744 43.1165 93.9061 40.5458 93.9061 37.056C93.9061 33.5448 91.1744 30.9954 87.8214 30.9954ZM87.8214 40.731C85.9845 40.731 84.4014 39.2163 84.4014 37.0574C84.4014 34.8757 85.986 33.3837 87.8214 33.3837C89.6582 33.3837 91.2414 34.8757 91.2414 37.0574C91.2428 39.2148 89.6582 40.731 87.8214 40.731ZM72.0352 32.8565V35.4272H78.1884C78.0045 36.8736 77.5229 37.9295 76.7876 38.6634C75.8927 39.5583 74.4919 40.5458 72.0352 40.5458C68.2476 40.5458 65.2864 37.492 65.2864 33.7044C65.2864 29.9167 68.2476 26.8629 72.0352 26.8629C74.0787 26.8629 75.5706 27.6666 76.6722 28.6998L78.4862 26.8857C76.9472 25.4166 74.9052 24.2922 72.0352 24.2922C66.8468 24.2922 62.4849 28.5159 62.4849 33.7044C62.4849 38.8928 66.8468 43.1165 72.0352 43.1165C74.8353 43.1165 76.9486 42.1974 78.6002 40.476C80.2988 38.7774 80.8275 36.3891 80.8275 34.461C80.8275 33.8654 80.7819 33.3139 80.6892 32.8551H72.0352V32.8565ZM136.599 34.8529C136.095 33.4992 134.556 30.9954 131.411 30.9954C128.289 30.9954 125.694 33.4521 125.694 37.056C125.694 40.4532 128.266 43.1165 131.709 43.1165C134.486 43.1165 136.093 41.4179 136.76 40.4304L134.694 39.0524C134.006 40.0627 133.064 40.7282 131.709 40.7282C130.355 40.7282 129.39 40.1083 128.77 38.8914L136.874 35.5398L136.599 34.8529ZM128.334 36.8736C128.266 34.5309 130.148 33.3381 131.503 33.3381C132.559 33.3381 133.454 33.8668 133.753 34.6235L128.334 36.8736ZM121.746 42.7503H124.408V24.9363H121.746V42.7503ZM117.383 32.3506H117.292C116.695 31.6381 115.546 30.9954 114.101 30.9954C111.07 30.9954 108.293 33.6588 108.293 37.0802C108.293 40.4774 111.07 43.1179 114.101 43.1179C115.548 43.1179 116.695 42.4752 117.292 41.7414H117.383V42.6135C117.383 44.9319 116.143 46.1717 114.147 46.1717C112.517 46.1717 111.506 45.0018 111.093 44.0142L108.775 44.979C109.44 46.5849 111.207 48.56 114.147 48.56C117.269 48.56 119.91 46.7232 119.91 42.2458V31.3645H117.384V32.3506H117.383ZM114.331 40.731C112.494 40.731 110.956 39.192 110.956 37.0802C110.956 34.9441 112.494 33.3837 114.331 33.3837C116.143 33.3837 117.567 34.9441 117.567 37.0802C117.567 39.192 116.143 40.731 114.331 40.731ZM149.074 24.9363H142.702V42.7503H145.36V36.0015H149.072C152.019 36.0015 154.917 33.8682 154.917 30.4696C154.917 27.071 152.02 24.9363 149.074 24.9363ZM149.142 33.522H145.36V27.4158H149.142C151.13 27.4158 152.258 29.0617 152.258 30.4696C152.258 31.849 151.13 33.522 149.142 33.522ZM165.575 30.9641C163.65 30.9641 161.656 31.812 160.831 33.6915L163.191 34.6762C163.695 33.6915 164.636 33.3695 165.621 33.3695C166.996 33.3695 168.394 34.1946 168.417 35.6609V35.8447C167.935 35.5697 166.903 35.1579 165.643 35.1579C163.1 35.1579 160.509 36.5558 160.509 39.1678C160.509 41.5518 162.595 43.0866 164.932 43.0866C166.719 43.0866 167.705 42.2843 168.324 41.3438H168.415V42.7189H170.983V35.8889C170.984 32.7282 168.622 30.9641 165.575 30.9641ZM165.253 40.7268C164.384 40.7268 163.168 40.2907 163.168 39.2134C163.168 37.8383 164.682 37.311 165.988 37.311C167.155 37.311 167.707 37.5633 168.417 37.9067C168.21 39.5583 166.789 40.7268 165.253 40.7268ZM180.334 31.3531L177.286 39.0766H177.195L174.031 31.3531H171.167L175.911 42.1475L173.206 48.1524H175.979L183.291 31.3531H180.334ZM156.385 42.7503H159.043V24.9363H156.385V42.7503Z" fill="white"/>
<path d="M71.5707 14.5963C71.5707 15.7904 71.2173 16.7409 70.5091 17.4506C69.7054 18.2942 68.6566 18.716 67.3684 18.716C66.1344 18.716 65.0841 18.2885 64.222 17.4335C63.3585 16.577 62.9267 15.5168 62.9267 14.2514C62.9267 12.9846 63.3585 11.9244 64.222 11.0694C65.0841 10.213 66.1344 9.7855 67.3684 9.7855C67.9812 9.7855 68.5668 9.9052 69.1226 10.1432C69.6798 10.3826 70.1258 10.7003 70.4592 11.0979L69.7083 11.8503C69.1425 11.1734 68.3631 10.8357 67.367 10.8357C66.4664 10.8357 65.6883 11.1521 65.0314 11.7848C64.3745 12.4175 64.0467 13.2397 64.0467 14.25C64.0467 15.2603 64.3745 16.0826 65.0314 16.7153C65.6883 17.348 66.4664 17.6643 67.367 17.6643C68.3217 17.6643 69.1183 17.3465 69.7553 16.7096C70.1685 16.2949 70.4079 15.7178 70.4721 14.9782H67.367V13.9508H71.5095C71.5522 14.1745 71.5707 14.3897 71.5707 14.5963Z" fill="white"/>
<path d="M78.1401 11.0253H74.247V13.7357H77.7582V14.7631H74.247V17.4735H78.1401V18.5251H73.1484V9.9751H78.1401V11.0253Z" fill="white"/>
<path d="M82.7726 18.5251H81.674V11.0253H79.2857V9.9751H85.1609V11.0253H82.7726V18.5251Z" fill="white"/>
<path d="M89.4117 18.5251V9.9751H90.5103V18.5251H89.4117Z" fill="white"/>
<path d="M95.3826 18.5251H94.284V11.0253H91.8957V9.9751H97.7709V11.0253H95.3826V18.5251Z" fill="white"/>
<path d="M108.893 17.4207C108.052 18.2843 107.007 18.716 105.758 18.716C104.508 18.716 103.463 18.2843 102.624 17.4207C101.783 16.5572 101.364 15.4998 101.364 14.2501C101.364 13.0004 101.783 11.943 102.624 11.0795C103.463 10.2159 104.508 9.78271 105.758 9.78271C107 9.78271 108.043 10.2173 108.887 11.0852C109.731 11.953 110.152 13.0075 110.152 14.2501C110.152 15.4998 109.732 16.5572 108.893 17.4207ZM103.435 16.7039C104.068 17.3452 104.841 17.6644 105.758 17.6644C106.674 17.6644 107.449 17.3438 108.08 16.7039C108.713 16.0627 109.031 15.2447 109.031 14.2501C109.031 13.2554 108.713 12.4375 108.08 11.7962C107.449 11.155 106.674 10.8358 105.758 10.8358C104.841 10.8358 104.068 11.1564 103.435 11.7962C102.804 12.4375 102.486 13.2554 102.486 14.2501C102.486 15.2447 102.804 16.0627 103.435 16.7039Z" fill="white"/>
<path d="M111.694 18.5251V9.9751H113.031L117.186 16.6256H117.233L117.186 14.9783V9.9751H118.285V18.5251H117.138L112.79 11.5512H112.743L112.79 13.1985V18.5251H111.694Z" fill="white"/>
<path d="M71.5707 14.5963C71.5707 15.7904 71.2173 16.7409 70.5091 17.4506C69.7054 18.2942 68.6566 18.716 67.3684 18.716C66.1344 18.716 65.0841 18.2885 64.222 17.4335C63.3585 16.577 62.9267 15.5168 62.9267 14.2514C62.9267 12.9846 63.3585 11.9244 64.222 11.0694C65.0841 10.213 66.1344 9.7855 67.3684 9.7855C67.9812 9.7855 68.5668 9.9052 69.1226 10.1432C69.6798 10.3826 70.1258 10.7003 70.4592 11.0979L69.7083 11.8503C69.1425 11.1734 68.3631 10.8357 67.367 10.8357C66.4664 10.8357 65.6883 11.1521 65.0314 11.7848C64.3745 12.4175 64.0467 13.2397 64.0467 14.25C64.0467 15.2603 64.3745 16.0826 65.0314 16.7153C65.6883 17.348 66.4664 17.6643 67.367 17.6643C68.3217 17.6643 69.1183 17.3465 69.7553 16.7096C70.1685 16.2949 70.4079 15.7178 70.4721 14.9782H67.367V13.9508H71.5095C71.5522 14.1745 71.5707 14.3897 71.5707 14.5963Z" stroke="white" stroke-width="0.2" stroke-miterlimit="10"/>
<path d="M78.1401 11.0253H74.247V13.7357H77.7582V14.7631H74.247V17.4735H78.1401V18.5251H73.1484V9.9751H78.1401V11.0253Z" stroke="white" stroke-width="0.2" stroke-miterlimit="10"/>
<path d="M82.7726 18.5251H81.674V11.0253H79.2857V9.9751H85.1609V11.0253H82.7726V18.5251Z" stroke="white" stroke-width="0.2" stroke-miterlimit="10"/>
<path d="M89.4117 18.5251V9.9751H90.5103V18.5251H89.4117Z" stroke="white" stroke-width="0.2" stroke-miterlimit="10"/>
<path d="M95.3826 18.5251H94.284V11.0253H91.8957V9.9751H97.7709V11.0253H95.3826V18.5251Z" stroke="white" stroke-width="0.2" stroke-miterlimit="10"/>
<path d="M108.893 17.4207C108.052 18.2843 107.007 18.716 105.758 18.716C104.508 18.716 103.463 18.2843 102.624 17.4207C101.783 16.5572 101.364 15.4998 101.364 14.2501C101.364 13.0004 101.783 11.943 102.624 11.0795C103.463 10.2159 104.508 9.78271 105.758 9.78271C107 9.78271 108.043 10.2173 108.887 11.0852C109.731 11.953 110.152 13.0075 110.152 14.2501C110.152 15.4998 109.732 16.5572 108.893 17.4207ZM103.435 16.7039C104.068 17.3452 104.841 17.6644 105.758 17.6644C106.674 17.6644 107.449 17.3438 108.08 16.7039C108.713 16.0627 109.031 15.2447 109.031 14.2501C109.031 13.2554 108.713 12.4375 108.08 11.7962C107.449 11.155 106.674 10.8358 105.758 10.8358C104.841 10.8358 104.068 11.1564 103.435 11.7962C102.804 12.4375 102.486 13.2554 102.486 14.2501C102.486 15.2447 102.804 16.0627 103.435 16.7039Z" stroke="white" stroke-width="0.2" stroke-miterlimit="10"/>
<path d="M111.694 18.5251V9.9751H113.031L117.186 16.6256H117.233L117.186 14.9783V9.9751H118.285V18.5251H117.138L112.79 11.5512H112.743L112.79 13.1985V18.5251H111.694Z" stroke="white" stroke-width="0.2" stroke-miterlimit="10"/>
<g filter="url(#filter1_ii_2_299)">
<path d="M18.8713 10.7417C18.4566 11.1806 18.2115 11.8618 18.2115 12.7438V44.2591C18.2115 45.1426 18.4566 45.8224 18.8713 46.2613L18.9768 46.3639L36.6311 28.7095V28.5015V28.2934L18.9768 10.6377L18.8713 10.7417Z" fill="url(#paint0_linear_2_299)"/>
<path d="M42.5149 34.5962L36.6311 28.7096V28.5015V28.2935L42.5164 22.4082L42.6489 22.4837L49.6214 26.4452C51.6121 27.5767 51.6121 29.4278 49.6214 30.5606L42.6489 34.5221L42.5149 34.5962Z" fill="url(#paint1_linear_2_299)"/>
<g filter="url(#filter2_i_2_299)">
<path d="M42.6489 34.5207L36.6297 28.5015L18.8713 46.2612C19.5268 46.9566 20.6113 47.0421 21.8325 46.3496L42.6489 34.5207Z" fill="url(#paint2_linear_2_299)"/>
</g>
<path d="M42.6489 22.4822L21.8325 10.6547C20.6113 9.96071 19.5268 10.0476 18.8713 10.743L36.6311 28.5028L42.6489 22.4822Z" fill="url(#paint3_linear_2_299)"/>
</g>
</g>
<defs>
<filter id="filter0_d_2_299" x="0" y="0" width="200.375" height="65" filterUnits="userSpaceOnUse" color-interpolation-filters="sRGB">
<feFlood flood-opacity="0" result="BackgroundImageFix"/>
<feColorMatrix in="SourceAlpha" type="matrix" values="0 0 0 0 0 0 0 0 0 0 0 0 0 0 0 0 0 0 127 0" result="hardAlpha"/>
<feOffset dy="4"/>
<feGaussianBlur stdDeviation="2"/>
<feComposite in2="hardAlpha" operator="out"/>
<feColorMatrix type="matrix" values="0 0 0 0 0 0 0 0 0 0 0 0 0 0 0 0 0 0 0.25 0"/>
<feBlend mode="normal" in2="BackgroundImageFix" result="effect1_dropShadow_2_299"/>
<feBlend mode="normal" in="SourceGraphic" in2="effect1_dropShadow_2_299" result="shape"/>
</filter>
<filter id="filter1_ii_2_299" x="18.2115" y="10.1758" width="32.9029" height="36.6521" filterUnits="userSpaceOnUse" color-interpolation-filters="sRGB">
<feFlood flood-opacity="0" result="BackgroundImageFix"/>
<feBlend mode="normal" in="SourceGraphic" in2="BackgroundImageFix" result="shape"/>
<feColorMatrix in="SourceAlpha" type="matrix" values="0 0 0 0 0 0 0 0 0 0 0 0 0 0 0 0 0 0 127 0" result="hardAlpha"/>
<feOffset dy="-0.15"/>
<feComposite in2="hardAlpha" operator="arithmetic" k2="-1" k3="1"/>
<feColorMatrix type="matrix" values="0 0 0 0 0 0 0 0 0 0 0 0 0 0 0 0 0 0 0.12 0"/>
<feBlend mode="normal" in2="shape" result="effect1_innerShadow_2_299"/>
<feColorMatrix in="SourceAlpha" type="matrix" values="0 0 0 0 0 0 0 0 0 0 0 0 0 0 0 0 0 0 127 0" result="hardAlpha"/>
<feOffset dy="0.15"/>
<feComposite in2="hardAlpha" operator="arithmetic" k2="-1" k3="1"/>
<feColorMatrix type="matrix" values="0 0 0 0 1 0 0 0 0 1 0 0 0 0 1 0 0 0 0.25 0"/>
<feBlend mode="normal" in2="effect1_innerShadow_2_299" result="effect2_innerShadow_2_299"/>
</filter>
<filter id="filter2_i_2_299" x="18.8713" y="28.5015" width="23.7775" height="18.3264" filterUnits="userSpaceOnUse" color-interpolation-filters="sRGB">
<feFlood flood-opacity="0" result="BackgroundImageFix"/>
<feBlend mode="normal" in="SourceGraphic" in2="BackgroundImageFix" result="shape"/>
<feColorMatrix in="SourceAlpha" type="matrix" values="0 0 0 0 0 0 0 0 0 0 0 0 0 0 0 0 0 0 127 0" result="hardAlpha"/>
<feOffset dy="-0.15"/>
<feComposite in2="hardAlpha" operator="arithmetic" k2="-1" k3="1"/>
<feColorMatrix type="matrix" values="0 0 0 0 0 0 0 0 0 0 0 0 0 0 0 0 0 0 0.08 0"/>
<feBlend mode="normal" in2="shape" result="effect1_innerShadow_2_299"/>
</filter>
<linearGradient id="paint0_linear_2_299" x1="35.0662" y1="12.4104" x2="11.1518" y2="36.3247" gradientUnits="userSpaceOnUse">
<stop stop-color="#00A0FF"/>
<stop offset="0.0066" stop-color="#00A1FF"/>
<stop offset="0.2601" stop-color="#00BEFF"/>
<stop offset="0.5122" stop-color="#00D2FF"/>
<stop offset="0.7604" stop-color="#00DFFF"/>
<stop offset="1" stop-color="#00E3FF"/>
</linearGradient>
<linearGradient id="paint1_linear_2_299" x1="52.2128" y1="28.5015" x2="17.7336" y2="28.5015" gradientUnits="userSpaceOnUse">
<stop stop-color="#FFE000"/>
<stop offset="0.4087" stop-color="#FFBD00"/>
<stop offset="0.7754" stop-color="#FFA500"/>
<stop offset="1" stop-color="#FF9C00"/>
</linearGradient>
<linearGradient id="paint2_linear_2_299" x1="39.3801" y1="31.7703" x2="6.94922" y2="64.2011" gradientUnits="userSpaceOnUse">
<stop stop-color="#FF3A44"/>
<stop offset="1" stop-color="#C31162"/>
</linearGradient>
<linearGradient id="paint3_linear_2_299" x1="14.3988" y1="0.251905" x2="28.8801" y2="14.7332" gradientUnits="userSpaceOnUse">
<stop stop-color="#32A071"/>
<stop offset="0.0685" stop-color="#2DA771"/>
<stop offset="0.4762" stop-color="#15CF74"/>
<stop offset="0.8009" stop-color="#06E775"/>
<stop offset="1" stop-color="#00F076"/>
</linearGradient>
</defs>
</svg>
